<svg xmlns="http://www.w3.org/2000/svg" viewBox="0 0 400 400" width="100%" height="100%">
  <rect width="400" height="400" rx="32" fill="#F8FAF8"/>
  <ellipse cx="200" cy="355" rx="80" ry="14" fill="#000000" fillOpacity="0.08"/>
  <!-- Cap -->
  <rect x="172" y="30" width="56" height="32" rx="6" fill="#16A34A" stroke="#15803D" stroke-width="3"/>
  <path d="M172 44 H228" stroke="#FFFFFF" stroke-width="3"/>
  <!-- Neck -->
  <rect x="178" y="62" width="44" height="35" fill="#E2E8F0" stroke="#CBD5E1" stroke-width="2"/>
  <!-- Bottle Body -->
  <path d="M178 97 C140 108 120 130 120 160 L120 330 C120 345 140 355 200 355 C260 355 280 345 280 330 L280 160 C280 130 260 108 222 97 Z" fill="#F8FAFC" stroke="#CBD5E1" stroke-width="4"/>
  <!-- Jug Handle -->
  <path d="M280 170 C315 170 320 250 280 260" stroke="#CBD5E1" stroke-width="18" stroke-linecap="round" fill="none"/>
  <path d="M280 170 C315 170 320 250 280 260" stroke="#F8FAFC" stroke-width="10" stroke-linecap="round" fill="none"/>
  <!-- Label -->
  <rect x="132" y="165" width="136" height="155" rx="12" fill="#FFFFFF" stroke="#E2E8F0" stroke-width="3"/>
  <rect x="132" y="165" width="136" height="40" rx="12" fill="#0284C7"/>
  <text x="200" y="190" text-anchor="middle" fill="#FFFFFF" font-family="sans-serif" font-size="12" font-weight="900" letter-spacing="1">SEAWEED EXTRACT</text>
  <!-- Droplet -->
  <path d="M200 220 C200 220 182 245 182 256 C182 266 190 274 200 274 C210 274 218 266 218 256 C218 245 200 220 200 220 Z" fill="#0EA5E9"/>
  <text x="200" y="295" text-anchor="middle" fill="#1E293B" font-family="sans-serif" font-size="11" font-weight="800">LIQUID BIO STIMULANT</text>
  <text x="200" y="310" text-anchor="middle" fill="#0284C7" font-family="sans-serif" font-size="9" font-weight="700">1 LITER CONCENTRATE</text>
</svg>
